<?xml version="1.0" encoding="UTF-8" standalone="no"?>
<!-- Created with Inkscape (http://www.inkscape.org/) -->

<svg
   width="11.90625mm"
   height="11.906247mm"
   viewBox="0 0 11.90625 11.906247"
   version="1.1"
   id="svg1198"
   xmlns="http://www.w3.org/2000/svg"
   xmlns:svg="http://www.w3.org/2000/svg">
  <defs
     id="defs1195" />
  <g
     id="layer1"
     transform="translate(-85.15507,-93.739183)">
    <path
       id="path848"
       style="fill:#8c8c8c;stroke-width:0.264583"
       d="M 91.108712 93.739183 C 87.820212 93.739183 85.15507 96.404086 85.15507 99.691791 C 85.15507 102.98003 87.820212 105.64543 91.108712 105.64543 C 94.396153 105.64543 97.061319 102.98003 97.06132 99.691791 C 97.06132 96.404086 94.396153 93.739183 91.108712 93.739183 z M 87.661377 96.090461 C 88.018999 96.095892 88.460961 96.321161 88.798258 96.575186 C 89.733185 97.279471 90.73904 98.707501 91.108195 99.473717 C 91.47735 98.707501 92.483204 97.279471 93.418132 96.575186 C 94.092855 96.067136 95.185982 95.673963 95.185982 96.925035 C 95.185982 97.174791 95.042973 99.024155 94.959123 99.324372 C 94.668081 100.368 93.607248 100.63421 92.663656 100.47314 C 94.313063 100.75476 94.732505 101.68754 93.826375 102.62029 C 92.105483 104.39191 91.353056 102.17577 91.160388 101.60795 C 91.124718 101.50247 91.108195 101.45427 91.108195 101.49737 C 91.108195 101.45427 91.091672 101.50247 91.056002 101.60795 C 90.863333 102.17577 90.110907 104.39191 88.390015 102.62029 C 87.483885 101.68754 87.903327 100.75476 89.552734 100.47314 C 88.609142 100.63421 87.548309 100.368 87.257267 99.324372 C 87.173417 99.024155 87.030408 97.174791 87.030408 96.925035 C 87.030408 96.299499 87.303755 96.085029 87.661377 96.090461 z " />
  </g>
</svg>
