<?xml version="1.0" encoding="UTF-8" standalone="no"?>
<svg
   width="45"
   height="45"
   viewBox="0 0 42.230769 45"
   fill="none"
   version="1.1"
   id="svg593"
   xmlns="http://www.w3.org/2000/svg"
   xmlns:svg="http://www.w3.org/2000/svg">
  <defs
     id="defs591">
    <linearGradient
       id="paint0_linear_89_8"
       x1="30.5"
       y1="0"
       x2="30.5"
       y2="65"
       gradientUnits="userSpaceOnUse">
      <stop
         stop-color="#6364FF"
         id="stop586" />
      <stop
         offset="1"
         stop-color="#563ACC"
         id="stop588" />
    </linearGradient>
  </defs>
  <path
     id="path848"
     style="fill:#8c8c8c"
     d="M 21.117338,0 C 12.269626,-0.12310205 3.7352935,5.5619139 0.38348824,13.740513 -3.1156122,21.774857 -1.3049215,31.755335 4.8283343,38.023248 10.729791,44.374539 20.452632,46.692169 28.593613,43.727744 37.031796,40.860742 43.251932,32.570624 43.58611,23.656039 44.14631,14.990668 39.123724,6.3291364 31.359459,2.4611507 28.205345,0.84034609 24.662732,-0.00539668 21.117338,0 Z m -0.275391,8.0683594 c 3.310499,0.1360881 6.788151,-0.1946872 9.940773,1.0071891 2.955663,1.2110365 4.932723,4.3338085 4.669328,7.5354785 -0.03319,3.016483 0.09322,6.067293 -0.338196,9.05506 -0.552335,3.165293 -3.520578,5.268654 -6.578709,5.609142 -4.295495,0.635308 -8.78258,0.72607 -13.007653,-0.17562 -0.133176,2.454486 2.089834,4.234803 4.42152,4.15723 2.227371,0.122663 4.498319,-0.257053 6.64289,-0.639651 -0.0041,0.790197 0.04547,1.611676 -0.02148,2.388668 -4.083243,2.180956 -9.222145,2.138399 -13.436656,0.319224 C 10.267111,35.996862 7.8996708,33.340237 7.5845732,30.108869 6.8016372,25.842658 6.8074377,21.473082 6.7948915,17.150722 6.7478929,14.119378 8.189998,11.033365 10.938804,9.5819857 13.924897,7.8977759 17.537414,8.1608236 20.841947,8.0683594 Z m -4.195312,5.0039066 c -2.79674,-0.177446 -4.834748,2.527022 -4.735249,5.15021 -0.0115,2.82485 -0.0018,5.649872 -0.005,8.47479 1.078125,0 2.15625,0 3.234375,0 0.04355,-2.92414 -0.09074,-5.858861 0.07402,-8.775855 0.587497,-3.060365 5.094794,-1.427576 4.369343,1.326636 0,1.445964 0,2.891927 0,4.337891 1.071614,0 2.143229,0 3.214843,0 0.08135,-1.969368 -0.200471,-3.980422 0.227758,-5.913285 0.872076,-2.625362 4.916814,-1.258111 4.213649,1.355343 0,2.556424 0,5.112847 0,7.66927 1.078776,0 2.157552,0 3.236328,0 -0.0623,-3.208603 0.136579,-6.43267 -0.123529,-9.629827 C 30.055751,14.348007 27.188302,12.484193 24.574158,13.191535 22.887977,13.458124 21.940355,14.9556 21.19351,16.332031 20.400903,14.763544 19.176212,13.161 17.248691,13.102083 l -0.29628,-0.02236 z" />
</svg>
